<svg width="25" height="24" viewBox="0 0 25 24" fill="none" xmlns="http://www.w3.org/2000/svg">
<path d="M2.5 12C2.5 7.286 2.5 4.929 3.964 3.464C5.43 2 7.786 2 12.5 2C17.214 2 19.571 2 21.035 3.464C22.5 4.93 22.5 7.286 22.5 12C22.5 16.714 22.5 19.071 21.035 20.535C19.572 22 17.214 22 12.5 22C7.786 22 5.429 22 3.964 20.535C2.5 19.072 2.5 16.714 2.5 12Z" stroke="#FFA500" stroke-width="1.5"/>
<path d="M7.5 10L9.793 12.293C9.98053 12.4805 10.2348 12.5858 10.5 12.5858C10.7652 12.5858 11.0195 12.4805 11.207 12.293L12.793 10.707C12.9805 10.5195 13.2348 10.4142 13.5 10.4142C13.7652 10.4142 14.0195 10.5195 14.207 10.707L17.5 14M17.5 14V11.5M17.5 14H15" stroke="#FFA500" stroke-width="1.5" stroke-linecap="round" stroke-linejoin="round"/>
</svg>
