<svg width="28" height="28" viewBox="0 0 28 28" fill="none" xmlns="http://www.w3.org/2000/svg">
<path d="M9.26181 2.86296C8.93374 3.19114 8.74944 3.63617 8.74944 4.10021C8.74944 4.56425 8.93374 5.00929 9.26181 5.33746L17.9243 14L9.26181 22.6625C8.94303 22.9925 8.76664 23.4346 8.77063 23.8934C8.77462 24.3523 8.95866 24.7912 9.28313 25.1156C9.60759 25.4401 10.0465 25.6242 10.5054 25.6281C10.9642 25.6321 11.4063 25.4557 11.7363 25.137L21.6361 15.2372C21.9641 14.909 22.1484 14.464 22.1484 14C22.1484 13.5359 21.9641 13.0909 21.6361 12.7627L11.7363 2.86296C11.4081 2.53489 10.9631 2.35059 10.4991 2.35059C10.035 2.35059 9.58998 2.53489 9.26181 2.86296Z" fill="#FFA500"/>
</svg>
