<svg width="25" height="24" viewBox="0 0 25 24" fill="none" xmlns="http://www.w3.org/2000/svg">
<path d="M14.0584 2.976C13.057 2.57538 11.9399 2.57538 10.9384 2.976L4.03004 5.742C3.69633 5.87546 3.41021 6.10576 3.20854 6.40325C3.00686 6.70074 2.89886 7.05179 2.89844 7.4112V16.5864C2.89838 16.9462 3.00616 17.2978 3.20786 17.5958C3.40957 17.8937 3.69595 18.1244 4.03004 18.258L10.9384 21.0216C11.9399 21.4222 13.057 21.4222 14.0584 21.0216L20.9668 18.258C21.3009 18.1244 21.5873 17.8937 21.789 17.5958C21.9907 17.2978 22.0985 16.9462 22.0984 16.5864V7.4112C22.0983 7.05159 21.9904 6.70027 21.7887 6.40255C21.587 6.10482 21.3007 5.87433 20.9668 5.7408L14.0584 2.976ZM11.3848 4.092C12.1001 3.80589 12.898 3.80589 13.6132 4.092L19.8832 6.6L17.1484 7.692L9.76364 4.74L11.3848 4.092ZM8.14844 5.3844L15.5332 8.3376L12.4984 9.5532L5.11364 6.5988L8.14844 5.3844ZM13.0984 10.6044L20.8984 7.4844V16.5852C20.8986 16.7052 20.8629 16.8226 20.7957 16.922C20.7285 17.0215 20.6331 17.0985 20.5216 17.1432L13.6132 19.9068C13.4452 19.9728 13.2724 20.0244 13.0984 20.0604V10.6044ZM11.8984 10.6044V20.0604C11.723 20.0246 11.5511 19.9732 11.3848 19.9068L4.47524 17.1432C4.36401 17.0986 4.26868 17.0218 4.20153 16.9225C4.13437 16.8233 4.09847 16.7062 4.09844 16.5864V7.4856L11.8984 10.6044Z" fill="#FFA500"/>
</svg>
