<svg width="90" height="91" viewBox="0 0 90 91" fill="none" xmlns="http://www.w3.org/2000/svg">
<path d="M51.7886 67.6529C60.7867 67.6529 68.0811 60.336 68.0811 51.3101C68.0811 42.2842 60.7867 34.9673 51.7886 34.9673C42.7905 34.9673 35.4961 42.2842 35.4961 51.3101C35.4961 60.336 42.7905 67.6529 51.7886 67.6529Z" fill="#FFA500"/>
<path d="M74.353 28.1334C74.3694 28.0547 74.4 26.4097 74.4 26.4097C74.4 25.7491 73.8673 25.2131 73.2078 25.2131H67.9184C67.3464 25.2131 66.8881 25.6287 66.7755 26.1734L64.9347 19.9598C64.6558 19.3386 63.2886 18.3302 62.4683 18.1027C59.9636 17.4081 55.8741 17.0625 51.7878 17.0625C47.6994 17.0625 43.6098 17.4081 41.1041 18.1027C40.2848 18.3302 38.9166 19.3386 38.6388 19.9598L36.3419 27.7123H34.313V26.32C34.3135 25.7276 34.0788 25.1591 33.6604 24.7397C33.242 24.3203 32.6742 24.0842 32.0817 24.0833H22.18C21.8867 24.0836 21.5963 24.1417 21.3254 24.2543C21.0545 24.3668 20.8085 24.5317 20.6014 24.7394C20.3942 24.9472 20.2301 25.1937 20.1183 25.4649C20.0065 25.7361 19.9493 26.0267 19.9498 26.32V27.7123H17.7656C14.6856 27.7123 12.1875 30.2181 12.1875 33.3069V64.3584C12.1875 67.4461 14.6845 69.9519 17.7656 69.9519H39.0052C42.7603 72.5529 47.2209 73.9436 51.7889 73.9375C56.5347 73.9375 60.937 72.4642 64.5716 69.9519H72.2344C75.3144 69.9519 77.8125 67.4461 77.8125 64.3584V33.3069C77.8128 32.1989 77.4842 31.1158 76.8683 30.1948C76.2524 29.2738 75.377 28.5564 74.353 28.1334ZM51.7889 71.8802C40.4795 71.8802 31.28 62.6533 31.28 51.31C31.28 39.9667 40.4795 30.7387 51.7889 30.7387C63.0961 30.7387 72.2956 39.9667 72.2956 51.31C72.2956 62.6533 63.0961 71.8802 51.7889 71.8802Z" fill="#FFA500"/>
</svg>
