<svg width="71" height="70" viewBox="0 0 71 70" fill="none" xmlns="http://www.w3.org/2000/svg">
<path d="M20.9108 11.6667V32.0833L35.4941 24.7917L50.0775 32.0833V11.6667H58.8275C59.601 11.6667 60.3429 11.974 60.8899 12.5209C61.4369 13.0679 61.7441 13.8098 61.7441 14.5833V61.25C61.7441 62.0235 61.4369 62.7654 60.8899 63.3124C60.3429 63.8594 59.601 64.1667 58.8275 64.1667H12.1608C11.3873 64.1667 10.6454 63.8594 10.0984 63.3124C9.55143 62.7654 9.24414 62.0235 9.24414 61.25V14.5833C9.24414 13.8098 9.55143 13.0679 10.0984 12.5209C10.6454 11.974 11.3873 11.6667 12.1608 11.6667H20.9108ZM35.4941 23.3333L22.3691 8.75H48.6191L35.4941 23.3333ZM38.4108 32.7717L35.4941 31.3133L32.5775 32.7717V58.3333H38.4108V32.7717ZM44.2441 40.8333V46.6667H55.9108V40.8333H44.2441Z" fill="#FFA500"/>
</svg>
