<svg width="20" height="20" viewBox="0 0 20 20" fill="none" xmlns="http://www.w3.org/2000/svg">
<g clip-path="url(#clip0_1496_3659)">
<path d="M19.8898 2.40059C20.405 0.975325 19.024 -0.405813 17.5988 0.110623L0.180467 6.41043C-1.24949 6.92806 -1.42242 8.8793 -0.106956 9.64143L5.45307 12.8605L10.418 7.89533C10.6429 7.67807 10.9442 7.55786 11.2569 7.56057C11.5696 7.56329 11.8687 7.68872 12.0898 7.90986C12.311 8.13099 12.4364 8.43014 12.4391 8.74286C12.4418 9.05558 12.3216 9.35685 12.1044 9.5818L7.13945 14.547L10.3595 20.1073C11.1204 21.4229 13.0716 21.2487 13.5892 19.8199L19.8898 2.40059Z" fill="#9A9A9A"/>
</g>
<defs>
<clipPath id="clip0_1496_3659">
<rect width="24" height="24" fill="white" transform="translate(-4)"/>
</clipPath>
</defs>
</svg>
