<svg width="28" height="34" viewBox="0 0 28 34" fill="none" xmlns="http://www.w3.org/2000/svg">
<path d="M28 27.2143V28.7857H0V27.2143L3.11111 24.0714V14.6429C3.11111 9.77143 6.26889 5.48143 10.8889 4.09857V3.64286C10.8889 2.80932 11.2167 2.00992 11.8001 1.42052C12.3836 0.831121 13.1749 0.5 14 0.5C14.8251 0.5 15.6164 0.831121 16.1999 1.42052C16.7833 2.00992 17.1111 2.80932 17.1111 3.64286V4.09857C21.7311 5.48143 24.8889 9.77143 24.8889 14.6429V24.0714L28 27.2143ZM17.1111 30.3571C17.1111 31.1907 16.7833 31.9901 16.1999 32.5795C15.6164 33.1689 14.8251 33.5 14 33.5C13.1749 33.5 12.3836 33.1689 11.8001 32.5795C11.2167 31.9901 10.8889 31.1907 10.8889 30.3571" fill="#FFA500"/>
</svg>
