<svg width="62" height="61" viewBox="0 0 62 61" fill="none" xmlns="http://www.w3.org/2000/svg">
<path d="M56.7975 24.7556C56.7917 24.681 56.7848 24.6064 56.7768 24.532C56.5478 21.3274 55.0944 18.3269 52.7088 16.1334C50.3232 13.94 47.1821 12.7163 43.917 12.7081H18.0837C14.7727 12.6934 11.5839 13.9377 9.1833 16.1812C6.78267 18.4248 5.35577 21.494 5.20058 24.748C5.17474 24.9488 5.16699 25.1572 5.16699 25.3911V41.9373C5.16699 44.2883 6.13058 46.5835 7.80716 48.2305C9.50908 49.894 11.8096 50.8293 14.2087 50.8331C18.8587 50.8331 20.6773 48.2915 23.2503 43.2081C23.6275 42.466 25.813 38.1248 31.0003 38.1248C36.1567 38.1248 38.3706 42.4634 38.7503 43.2081C41.344 48.2915 43.142 50.8331 47.792 50.8331C50.1816 50.8331 52.5143 49.8851 54.1883 48.2356C55.8791 46.5611 56.8298 44.2976 56.8337 41.9373V25.4165C56.8337 25.175 56.8233 24.959 56.7975 24.7556ZM18.0837 30.5786C17.3956 30.5939 16.7114 30.4738 16.0712 30.2254C15.431 29.9769 14.8476 29.6052 14.3555 29.1319C13.8633 28.6586 13.4722 28.0933 13.2051 27.4693C12.938 26.8452 12.8004 26.175 12.8002 25.4978C12.8 24.8207 12.9373 24.1504 13.2041 23.5262C13.4709 22.902 13.8617 22.3366 14.3536 21.863C14.8455 21.3895 15.4287 21.0174 16.0688 20.7687C16.7089 20.5199 17.393 20.3995 18.0811 20.4145C19.431 20.4438 20.7156 20.992 21.6599 21.9416C22.6042 22.8912 23.1332 24.1668 23.1335 25.4953C23.1339 26.8238 22.6056 28.0996 21.6618 29.0497C20.7179 29.9998 19.4336 30.5486 18.0837 30.5786ZM43.917 17.8703C44.6021 17.8703 45.2592 18.138 45.7437 18.6147C46.2282 19.0914 46.5003 19.7378 46.5003 20.4119C46.5003 21.086 46.2282 21.7325 45.7437 22.2092C45.2592 22.6858 44.6021 22.9536 43.917 22.9536C43.2318 22.9536 42.5748 22.6858 42.0903 22.2092C41.6058 21.7325 41.3337 21.086 41.3337 20.4119C41.3337 19.7378 41.6058 19.0914 42.0903 18.6147C42.5748 18.138 43.2318 17.8703 43.917 17.8703ZM38.7503 28.0369C38.0652 28.0369 37.4081 27.7691 36.9236 27.2925C36.4392 26.8158 36.167 26.1694 36.167 25.4953C36.167 24.8212 36.4392 24.1747 36.9236 23.698C37.4081 23.2214 38.0652 22.9536 38.7503 22.9536C39.4355 22.9536 40.0925 23.2214 40.577 23.698C41.0615 24.1747 41.3337 24.8212 41.3337 25.4953C41.3337 26.1694 41.0615 26.8158 40.577 27.2925C40.0925 27.7691 39.4355 28.0369 38.7503 28.0369ZM43.917 33.1203C43.2318 33.1203 42.5748 32.8525 42.0903 32.3758C41.6058 31.8992 41.3337 31.2527 41.3337 30.5786C41.3337 29.9045 41.6058 29.258 42.0903 28.7814C42.5748 28.3047 43.2318 28.0369 43.917 28.0369C44.6021 28.0369 45.2592 28.3047 45.7437 28.7814C46.2282 29.258 46.5003 29.9045 46.5003 30.5786C46.5003 31.2527 46.2282 31.8992 45.7437 32.3758C45.2592 32.8525 44.6021 33.1203 43.917 33.1203ZM49.0837 28.0369C48.3985 28.0369 47.7414 27.7691 47.257 27.2925C46.7725 26.8158 46.5003 26.1694 46.5003 25.4953C46.5003 24.8212 46.7725 24.1747 47.257 23.698C47.7414 23.2214 48.3985 22.9536 49.0837 22.9536C49.7688 22.9536 50.4259 23.2214 50.9104 23.698C51.3948 24.1747 51.667 24.8212 51.667 25.4953C51.667 26.1694 51.3948 26.8158 50.9104 27.2925C50.4259 27.7691 49.7688 28.0369 49.0837 28.0369Z" fill="#FFA500"/>
</svg>
