<svg width="30" height="27" viewBox="0 0 30 27" fill="none" xmlns="http://www.w3.org/2000/svg">
<path d="M21.5745 0.538818C19.0091 0.538818 16.7323 1.56661 15.1897 3.33318C13.6471 1.56661 11.3703 0.538818 8.8049 0.538818C6.5705 0.541562 4.42839 1.44368 2.84843 3.04731C1.26847 4.65093 0.379657 6.82512 0.376953 9.09298C0.376953 18.4689 13.8885 25.9602 14.4631 26.2752C14.6864 26.3973 14.9361 26.4611 15.1897 26.4611C15.4433 26.4611 15.693 26.3973 15.9163 26.2752C16.4909 25.9602 30.0025 18.4689 30.0025 9.09298C29.9998 6.82512 29.111 4.65093 27.531 3.04731C25.951 1.44368 23.8089 0.541562 21.5745 0.538818ZM20.8735 18.9899C19.095 20.5217 17.1938 21.9003 15.1897 23.1114C13.1856 21.9003 11.2844 20.5217 9.50595 18.9899C6.73878 16.5805 3.44166 12.9061 3.44166 9.09298C3.44166 7.64926 4.00672 6.26467 5.01252 5.2438C6.01832 4.22294 7.38248 3.64942 8.8049 3.64942C11.0779 3.64942 12.9806 4.86774 13.771 6.83002C13.8861 7.11607 14.0824 7.36087 14.3351 7.53318C14.5878 7.7055 14.8853 7.79752 15.1897 7.79752C15.4941 7.79752 15.7916 7.7055 16.0443 7.53318C16.297 7.36087 16.4934 7.11607 16.6084 6.83002C17.3989 4.86774 19.3015 3.64942 21.5745 3.64942C22.9969 3.64942 24.3611 4.22294 25.3669 5.2438C26.3727 6.26467 26.9378 7.64926 26.9378 9.09298C26.9378 12.9061 23.6406 16.5805 20.8735 18.9899Z" fill="black"/>
</svg>
