<svg width="78" height="78" viewBox="0 0 78 78" fill="none" xmlns="http://www.w3.org/2000/svg">
<path d="M42.3409 6.5C45.9972 6.50975 47.8529 6.52925 49.4552 6.57475L50.0857 6.5975C50.8137 6.6235 51.5319 6.656 52.3997 6.695C55.8577 6.8575 58.2172 7.4035 60.2874 8.20625C62.4324 9.03175 64.2394 10.1497 66.0464 11.9535C67.699 13.5782 68.9778 15.5434 69.7937 17.7125C70.5964 19.7827 71.1424 22.1422 71.3049 25.6035C71.3439 26.468 71.3764 27.1863 71.4024 27.9175L71.4219 28.548C71.4707 30.147 71.4902 32.0028 71.4967 35.659L71.4999 38.0835V42.341C71.5079 44.7116 71.483 47.0821 71.4252 49.452L71.4057 50.0825C71.3797 50.8138 71.3472 51.532 71.3082 52.3965C71.1457 55.8577 70.5932 58.214 69.7937 60.2875C68.9801 62.4578 67.7011 64.4235 66.0464 66.0465C64.4213 67.6985 62.4562 68.9772 60.2874 69.7938C58.2172 70.5965 55.8577 71.1425 52.3997 71.305C51.6285 71.3413 50.8572 71.3738 50.0857 71.4025L49.4552 71.422C47.8529 71.4675 45.9972 71.4902 42.3409 71.4967L39.9164 71.5H35.6622C33.2905 71.5082 30.9189 71.4833 28.5479 71.4252L27.9174 71.4058C27.1459 71.3765 26.3746 71.3429 25.6034 71.305C22.1454 71.1425 19.7859 70.5965 17.7124 69.7938C15.5436 68.9792 13.5791 67.7003 11.9567 66.0465C10.3026 64.4224 9.02265 62.4571 8.20617 60.2875C7.40342 58.2172 6.85742 55.8577 6.69492 52.3965C6.65871 51.6253 6.62621 50.854 6.59742 50.0825L6.58117 49.452C6.52128 47.0822 6.4942 44.7116 6.49992 42.341V35.659C6.49085 33.2885 6.51469 30.9179 6.57142 28.548L6.59417 27.9175C6.62017 27.1863 6.65267 26.468 6.69167 25.6035C6.85417 22.1422 7.40017 19.786 8.20292 17.7125C9.01904 15.5412 10.3015 13.5753 11.9599 11.9535C13.582 10.3008 15.5451 9.02196 17.7124 8.20625C19.7859 7.4035 22.1422 6.8575 25.6034 6.695C26.4679 6.656 27.1894 6.6235 27.9174 6.5975L28.5479 6.578C30.9178 6.52026 33.2884 6.49534 35.6589 6.50325L42.3409 6.5ZM38.9999 22.75C34.6902 22.75 30.5569 24.462 27.5094 27.5095C24.462 30.557 22.7499 34.6902 22.7499 39C22.7499 43.3098 24.462 47.443 27.5094 50.4905C30.5569 53.538 34.6902 55.25 38.9999 55.25C43.3097 55.25 47.4429 53.538 50.4904 50.4905C53.5379 47.443 55.2499 43.3098 55.2499 39C55.2499 34.6902 53.5379 30.557 50.4904 27.5095C47.4429 24.462 43.3097 22.75 38.9999 22.75ZM38.9999 29.25C40.2803 29.2498 41.5482 29.5018 42.7312 29.9916C43.9142 30.4813 44.9892 31.1993 45.8947 32.1046C46.8002 33.0098 47.5186 34.0845 48.0088 35.2673C48.4989 36.4502 48.7513 37.718 48.7515 38.9984C48.7518 40.2788 48.4998 41.5467 48.01 42.7297C47.5202 43.9127 46.8022 44.9876 45.897 45.8931C44.9918 46.7987 43.9171 47.517 42.7342 48.0072C41.5514 48.4974 40.2836 48.7498 39.0032 48.75C36.4173 48.75 33.9374 47.7228 32.1089 45.8943C30.2804 44.0658 29.2532 41.5859 29.2532 39C29.2532 36.4141 30.2804 33.9342 32.1089 32.1057C33.9374 30.2772 36.4173 29.25 39.0032 29.25M56.0657 17.875C54.9882 17.875 53.9549 18.303 53.1931 19.0649C52.4312 19.8267 52.0032 20.8601 52.0032 21.9375C52.0032 23.0149 52.4312 24.0483 53.1931 24.8101C53.9549 25.572 54.9882 26 56.0657 26C57.1431 26 58.1764 25.572 58.9383 24.8101C59.7002 24.0483 60.1282 23.0149 60.1282 21.9375C60.1282 20.8601 59.7002 19.8267 58.9383 19.0649C58.1764 18.303 57.1431 17.875 56.0657 17.875Z" fill="white"/>
</svg>
