<svg width="59" height="60" viewBox="0 0 59 60" fill="none" xmlns="http://www.w3.org/2000/svg">
<path fillRule="evenodd" clipRule="evenodd" d="M49 0.75C51.5859 0.75 54.0658 1.77723 55.8943 3.60571C57.7228 5.43419 58.75 7.91414 58.75 10.5V49.5C58.75 52.0859 57.7228 54.5658 55.8943 56.3943C54.0658 58.2228 51.5859 59.25 49 59.25H10C7.41414 59.25 4.93419 58.2228 3.10571 56.3943C1.27723 54.5658 0.25 52.0859 0.25 49.5V10.5C0.25 7.91414 1.27723 5.43419 3.10571 3.60571C4.93419 1.77723 7.41414 0.75 10 0.75H49ZM16.5 23.5C15.638 23.5 14.8114 23.8424 14.2019 24.4519C13.5924 25.0614 13.25 25.888 13.25 26.75V43C13.25 43.862 13.5924 44.6886 14.2019 45.2981C14.8114 45.9076 15.638 46.25 16.5 46.25C17.362 46.25 18.1886 45.9076 18.7981 45.2981C19.4076 44.6886 19.75 43.862 19.75 43V26.75C19.75 25.888 19.4076 25.0614 18.7981 24.4519C18.1886 23.8424 17.362 23.5 16.5 23.5ZM26.25 20.25C25.388 20.25 24.5614 20.5924 23.9519 21.2019C23.3424 21.8114 23 22.638 23 23.5V43C23 43.862 23.3424 44.6886 23.9519 45.2981C24.5614 45.9076 25.388 46.25 26.25 46.25C27.112 46.25 27.9386 45.9076 28.5481 45.2981C29.1576 44.6886 29.5 43.862 29.5 43V31.105C30.4912 29.987 32.165 28.674 34.0272 27.8778C35.1095 27.4163 36.7378 27.2278 37.8687 27.5853C38.2439 27.6804 38.5781 27.8948 38.821 28.1962C38.99 28.4237 39.25 28.9307 39.25 30V43C39.25 43.862 39.5924 44.6886 40.2019 45.2981C40.8114 45.9076 41.638 46.25 42.5 46.25C43.362 46.25 44.1886 45.9076 44.7981 45.2981C45.4076 44.6886 45.75 43.862 45.75 43V30C45.75 27.8225 45.1975 25.8855 44.047 24.332C42.9883 22.9233 41.5067 21.8904 39.8188 21.3843C36.8872 20.4645 33.6405 20.9747 31.4728 21.9042C30.7782 22.2015 30.1021 22.5401 29.448 22.9183C29.3118 22.1694 28.917 21.4921 28.3326 21.0045C27.7482 20.5169 27.0111 20.2499 26.25 20.25ZM16.5 13.75C15.638 13.75 14.8114 14.0924 14.2019 14.7019C13.5924 15.3114 13.25 16.138 13.25 17C13.25 17.862 13.5924 18.6886 14.2019 19.2981C14.8114 19.9076 15.638 20.25 16.5 20.25C17.362 20.25 18.1886 19.9076 18.7981 19.2981C19.4076 18.6886 19.75 17.862 19.75 17C19.75 16.138 19.4076 15.3114 18.7981 14.7019C18.1886 14.0924 17.362 13.75 16.5 13.75Z" fill="white"/>
</svg>
