<svg width="25" height="26" viewBox="0 0 25 26" fill="none" xmlns="http://www.w3.org/2000/svg">
<path d="M13.0473 9.98944C13.0473 10.2556 12.9416 10.5109 12.7534 10.6991C12.5652 10.8874 12.3099 10.9931 12.0437 10.9931C11.7775 10.9931 11.5222 10.8874 11.334 10.6991C11.1458 10.5109 11.04 10.2556 11.04 9.98944C11.04 9.72326 11.1458 9.46798 11.334 9.27976C11.5222 9.09154 11.7775 8.98579 12.0437 8.98579C12.3099 8.98579 12.5652 9.09154 12.7534 9.27976C12.9416 9.46798 13.0473 9.72326 13.0473 9.98944Z" stroke="black" stroke-width="1.92701" stroke-linejoin="round"/>
<path d="M17.5636 10.491C17.5636 13.5401 15.5563 17.0147 12.0435 21.0293C8.53074 17.0147 6.52344 13.5401 6.52344 10.491C6.52344 9.02701 7.10501 7.62296 8.14023 6.58775C9.17544 5.55253 10.5795 4.97095 12.0435 4.97095C13.5075 4.97095 14.9116 5.55253 15.9468 6.58775C16.982 7.62296 17.5636 9.02701 17.5636 10.491Z" stroke="black" stroke-width="1.92701" stroke-linejoin="round"/>
</svg>
