<svg width="21" height="20" viewBox="0 0 21 20" fill="none" xmlns="http://www.w3.org/2000/svg">
<path d="M20.2382 8.0415H19.4489V8H10.6289V12H16.1673C15.3593 14.3285 13.1881 16 10.6289 16C7.38163 16 4.74886 13.3135 4.74886 10C4.74886 6.6865 7.38163 4 10.6289 4C12.1278 4 13.4914 4.577 14.5297 5.5195L17.3017 2.691C15.5514 1.0265 13.2102 0 10.6289 0C5.21681 0 0.828857 4.4775 0.828857 10C0.828857 15.5225 5.21681 20 10.6289 20C16.0409 20 20.4289 15.5225 20.4289 10C20.4289 9.3295 20.3612 8.675 20.2382 8.0415Z" fill="#FFC107"/>
<path d="M1.9588 5.3455L5.17859 7.755C6.04981 5.554 8.15975 4 10.6289 4C12.1278 4 13.4914 4.577 14.5297 5.5195L17.3017 2.691C15.5514 1.0265 13.2102 0 10.6289 0C6.86468 0 3.6003 2.1685 1.9588 5.3455Z" fill="#FF3D00"/>
<path d="M10.6289 20C13.1602 20 15.4603 19.0115 17.1993 17.404L14.1662 14.785C13.1492 15.5742 11.9065 16.001 10.6289 16C8.07988 16 5.91555 14.3415 5.10019 12.027L1.90441 14.5395C3.52631 17.778 6.82009 20 10.6289 20Z" fill="#4CAF50"/>
<path d="M20.2382 8.0415H19.4489V8H10.6289V12H16.1673C15.7808 13.1082 15.0846 14.0766 14.1647 14.7855L14.1662 14.785L17.1993 17.404C16.9846 17.603 20.4289 15 20.4289 10C20.4289 9.3295 20.3612 8.675 20.2382 8.0415Z" fill="#1976D2"/>
</svg>
