<svg width="30" height="30" viewBox="0 0 30 30" fill="none" xmlns="http://www.w3.org/2000/svg">
<path d="M5.24029 27.1364C5.23975 26.8283 5.30003 26.5232 5.41766 26.2385C5.53529 25.9539 5.70796 25.6952 5.92577 25.4774C6.14359 25.2596 6.40225 25.0869 6.68693 24.9693C6.97162 24.8516 7.27673 24.7914 7.58476 24.7919H21.7868L1.51395 4.51906C1.07504 4.08015 0.828459 3.48486 0.82846 2.86414C0.828459 2.24342 1.07504 1.64813 1.51395 1.20922C1.95286 0.770302 2.54816 0.523722 3.16888 0.523724C3.78959 0.523722 4.38489 0.770302 4.8238 1.20921L25.0966 21.482L25.0994 7.27727C25.0994 6.65548 25.3464 6.05915 25.7861 5.61947C26.2257 5.1798 26.8221 4.93279 27.4439 4.93279C28.0656 4.93279 28.662 5.1798 29.1017 5.61947C29.5413 6.05915 29.7883 6.65548 29.7883 7.27727L29.7883 27.1364C29.7889 27.4444 29.7286 27.7495 29.611 28.0342C29.4933 28.3189 29.3207 28.5775 29.1028 28.7953C28.885 29.0132 28.6264 29.1858 28.3417 29.3035C28.057 29.4211 27.7519 29.4814 27.4439 29.4808L7.58476 29.4808C7.27673 29.4814 6.97162 29.4211 6.68694 29.3035C6.40225 29.1858 6.14358 29.0132 5.92577 28.7954C5.70796 28.5775 5.53529 28.3189 5.41766 28.0342C5.30003 27.7495 5.23975 27.4444 5.24029 27.1364Z" fill="#FFA500"/>
</svg>
