<svg width="39" height="37" viewBox="0 0 39 37" fill="none" xmlns="http://www.w3.org/2000/svg">
<rect x="0.883789" width="38" height="37" rx="9" fill="#FFA500" fill-opacity="0.65"/>
<path d="M28.9807 23.1102C28.4314 22.191 27.6148 19.5899 27.6148 16.1926C27.6148 14.1524 26.7806 12.1958 25.2957 10.7531C23.8108 9.31047 21.7968 8.5 19.6968 8.5C17.5968 8.5 15.5828 9.31047 14.0979 10.7531C12.613 12.1958 11.7787 14.1524 11.7787 16.1926C11.7787 19.5909 10.9612 22.191 10.4119 23.1102C10.2716 23.344 10.1973 23.6095 10.1963 23.88C10.1953 24.1505 10.2678 24.4165 10.4065 24.6512C10.5451 24.8858 10.7449 25.0808 10.9859 25.2164C11.2268 25.3521 11.5003 25.4236 11.7787 25.4238H15.8179C16.0006 26.2923 16.4864 27.0728 17.1932 27.6333C17.9 28.1938 18.7844 28.5 19.6968 28.5C20.6092 28.5 21.4935 28.1938 22.2003 27.6333C22.9071 27.0728 23.3929 26.2923 23.5756 25.4238H27.6148C27.8932 25.4234 28.1666 25.3518 28.4074 25.2161C28.6482 25.0804 28.8479 24.8854 28.9864 24.6508C29.1249 24.4161 29.1973 24.1502 29.1963 23.8798C29.1953 23.6093 29.1209 23.3439 28.9807 23.1102ZM19.6968 26.9623C19.2057 26.9622 18.7267 26.8142 18.3258 26.5386C17.9248 26.2631 17.6217 25.8736 17.458 25.4238H21.9356C21.7719 25.8736 21.4687 26.2631 21.0678 26.5386C20.6669 26.8142 20.1879 26.9622 19.6968 26.9623Z" fill="white"/>
</svg>
