<svg width="71" height="71" viewBox="0 0 71 71" fill="none" xmlns="http://www.w3.org/2000/svg">
<path fillRule="evenodd" clipRule="evenodd" d="M61.9269 24.9513H9.46191C9.54066 17.263 10.019 12.9813 12.8627 10.1405C16.2782 6.72217 21.779 6.72217 32.7777 6.72217H38.6111C49.6098 6.72217 55.1107 6.72217 58.5261 10.1405C61.3698 12.9813 61.8482 17.263 61.9269 24.9513ZM17.4652 16.9305C17.4652 16.3503 17.6957 15.7939 18.106 15.3837C18.5162 14.9735 19.0726 14.743 19.6527 14.743H28.4027C28.9829 14.743 29.5393 14.9735 29.9495 15.3837C30.3598 15.7939 30.5902 16.3503 30.5902 16.9305C30.5902 17.5107 30.3598 18.0671 29.9495 18.4773C29.5393 18.8875 28.9829 19.118 28.4027 19.118H19.6527C19.0726 19.118 18.5162 18.8875 18.106 18.4773C17.6957 18.0671 17.4652 17.5107 17.4652 16.9305ZM42.9861 19.8472C43.7596 19.8472 44.5015 19.5399 45.0485 18.9929C45.5955 18.4459 45.9027 17.7041 45.9027 16.9305C45.9027 16.157 45.5955 15.4151 45.0485 14.8681C44.5015 14.3211 43.7596 14.0138 42.9861 14.0138C42.2125 14.0138 41.4707 14.3211 40.9237 14.8681C40.3767 15.4151 40.0694 16.157 40.0694 16.9305C40.0694 17.7041 40.3767 18.4459 40.9237 18.9929C41.4707 19.5399 42.2125 19.8472 42.9861 19.8472ZM54.6527 16.9305C54.6527 17.7041 54.3455 18.4459 53.7985 18.9929C53.2515 19.5399 52.5096 19.8472 51.7361 19.8472C50.9625 19.8472 50.2207 19.5399 49.6737 18.9929C49.1267 18.4459 48.8194 17.7041 48.8194 16.9305C48.8194 16.157 49.1267 15.4151 49.6737 14.8681C50.2207 14.3211 50.9625 14.0138 51.7361 14.0138C52.5096 14.0138 53.2515 14.3211 53.7985 14.8681C54.3455 15.4151 54.6527 16.157 54.6527 16.9305Z" fill="#FFA500"/>
<path d="M29.1318 44.6387C29.1318 42.8982 29.8232 41.229 31.0539 39.9983C32.2847 38.7676 33.9539 38.0762 35.6943 38.0762C37.4348 38.0762 39.104 38.7676 40.3347 39.9983C41.5654 41.229 42.2568 42.8982 42.2568 44.6387C42.2568 46.3792 41.5654 48.0484 40.3347 49.2791C39.104 50.5098 37.4348 51.2012 35.6943 51.2012C33.9539 51.2012 32.2847 50.5098 31.0539 49.2791C29.8232 48.0484 29.1318 46.3792 29.1318 44.6387Z" fill="#FFA500"/>
<path fillRule="evenodd" clipRule="evenodd" d="M9.44434 29.3262H61.9443V38.8053C61.9443 49.8041 61.9443 55.3049 58.526 58.7203C57.6313 59.6099 56.5603 60.3024 55.3818 60.7533V65.0553C55.3818 65.6355 55.1514 66.1919 54.7411 66.6021C54.3309 67.0124 53.7745 67.2428 53.1943 67.2428C52.6142 67.2428 52.0578 67.0124 51.6475 66.6021C51.2373 66.1919 51.0068 65.6355 51.0068 65.0553V61.7624C47.886 62.1387 43.8785 62.1387 38.611 62.1387H32.7777C27.5102 62.1387 23.5027 62.1387 20.3818 61.7624V65.0553C20.3818 65.6355 20.1514 66.1919 19.7411 66.6021C19.3309 67.0124 18.7745 67.2428 18.1943 67.2428C17.6142 67.2428 17.0578 67.0124 16.6475 66.6021C16.2373 66.1919 16.0068 65.6355 16.0068 65.0553V60.7533C14.8284 60.3024 13.7574 59.6099 12.8627 58.7203C9.44434 55.3049 9.44434 49.8041 9.44434 38.8053V29.3262ZM35.6943 33.7012C32.7935 33.7012 30.0115 34.8535 27.9604 36.9047C25.9092 38.9559 24.7568 41.7379 24.7568 44.6387C24.7568 47.5395 25.9092 50.3215 27.9604 52.3727C30.0115 54.4238 32.7935 55.5762 35.6943 55.5762C38.5951 55.5762 41.3771 54.4238 43.4283 52.3727C45.4795 50.3215 46.6318 47.5395 46.6318 44.6387C46.6318 41.7379 45.4795 38.9559 43.4283 36.9047C41.3771 34.8535 38.5951 33.7012 35.6943 33.7012Z" fill="#FFA500"/>
</svg>
