<svg width="24" height="24" viewBox="0 0 24 24" fill="none" xmlns="http://www.w3.org/2000/svg">
<path d="M9.18196 2.87445L2.11096 9.94545C1.73602 10.3205 1.52539 10.8291 1.52539 11.3594C1.52539 11.8898 1.73602 12.3984 2.11096 12.7734L7.76696 18.4304C7.95271 18.6164 8.17329 18.7639 8.41608 18.8646C8.65888 18.9652 8.91913 19.017 9.18196 19.017C9.44479 19.017 9.70505 18.9652 9.94784 18.8646C10.1906 18.7639 10.4112 18.6164 10.597 18.4304L17.667 11.3594L9.18196 2.87445ZM9.18196 2.87445L7.76796 1.46045M19.475 14.6524C19.475 14.6524 22.475 17.6454 22.475 19.5394C22.475 21.1944 21.13 22.5394 19.475 22.5394C17.819 22.5394 16.487 21.1944 16.475 19.5394C16.485 17.6444 19.475 14.6524 19.475 14.6524Z" stroke="#FFA500" stroke-width="1.5" stroke-miterlimit="1.5" stroke-linecap="round" stroke-linejoin="round"/>
</svg>
