<svg width="70" height="71" viewBox="0 0 70 71" fill="none" xmlns="http://www.w3.org/2000/svg">
<path d="M45.9375 56.2958C43.5167 56.2958 41.5625 53.8458 41.5625 50.8125C41.5625 47.8083 43.5167 45.3583 45.9375 45.3583C48.3584 45.3583 50.3125 47.8083 50.3125 50.8125C50.3125 53.8458 48.3584 56.2958 45.9375 56.2958ZM35 33.3125C31.3834 33.3125 28.4375 30.8625 28.4375 27.8583C28.4375 24.825 31.3834 22.375 35 22.375C38.6167 22.375 41.5625 24.825 41.5625 27.8583C41.5625 30.8625 38.6167 33.3125 35 33.3125ZM24.0625 56.2958C21.6417 56.2958 19.6875 53.8458 19.6875 50.8125C19.6875 47.8083 21.6417 45.3583 24.0625 45.3583C26.4834 45.3583 28.4375 47.8083 28.4375 50.8125C28.4375 53.8458 26.4834 56.2958 24.0625 56.2958ZM35 24.5625C36.1959 24.5625 37.1875 25.5542 37.1875 26.75C37.1875 27.9458 36.1959 28.9375 35 28.9375C33.8042 28.9375 32.8125 27.9458 32.8125 26.75C32.8125 25.5542 33.8042 24.5625 35 24.5625ZM54.6875 35.5C53.7542 35.5 52.85 35.7042 52.0334 36.0833C50.6334 34.3042 48.7375 32.7875 46.4625 31.6208C48.125 29.2875 49.1167 26.4583 49.1167 23.3958V23.2208C52.2959 22.55 54.6875 19.7208 54.6875 16.3083C54.6875 12.4292 51.5084 9.25 47.6292 9.25C45.6167 9.25 43.75 10.0958 42.525 11.4375C40.2752 10.0089 37.6651 9.25022 35 9.25022C32.3349 9.25022 29.7249 10.0089 27.475 11.4375C26.25 10.0958 24.3834 9.25 22.3709 9.25C18.4917 9.25 15.3125 12.4292 15.3125 16.3083C15.3125 19.6917 17.7042 22.5208 20.8542 23.2208V23.3958C20.8542 26.4583 21.875 29.3167 23.5084 31.6208C21.2625 32.7875 19.3667 34.3042 17.9667 36.0833C16.97 35.6343 15.8765 35.4426 14.7865 35.5258C13.6965 35.6089 12.6447 35.9642 11.7276 36.5592C10.8105 37.1541 10.0574 37.9697 9.53715 38.9312C9.01694 39.8927 8.7463 40.9693 8.75004 42.0625C8.75004 45.7083 11.6667 48.625 15.3125 48.625H15.4875C15.3709 49.325 15.3125 50.0833 15.3125 50.8125C15.3125 56.85 19.2209 61.75 24.0625 61.75C27.0084 61.75 29.6042 59.9125 31.2084 57.1125C32.4334 57.2875 33.6875 57.375 35 57.375C36.3125 57.375 37.5667 57.2875 38.7917 57.1125C40.3959 59.9125 42.9917 61.75 45.9375 61.75C50.7792 61.75 54.6875 56.85 54.6875 50.8125C54.6875 50.0833 54.6292 49.325 54.5125 48.625H54.6875C58.3334 48.625 61.25 45.7083 61.25 42.0625C61.25 38.4167 58.3334 35.5 54.6875 35.5Z" fill="#FFA500"/>
</svg>
