<svg width="31" height="32" viewBox="0 0 31 32" fill="none" xmlns="http://www.w3.org/2000/svg">
<path d="M22.7922 1.50563L22.7922 1.50566L29.996 8.708L30.1727 8.53121L29.996 8.70801C30.1759 8.88793 30.3187 9.10154 30.4161 9.33663C30.5135 9.57173 30.5636 9.82371 30.5636 10.0782C30.5636 10.3327 30.5135 10.5846 30.4161 10.8197C30.3187 11.0548 30.1759 11.2684 29.996 11.4484L29.9959 11.4484L10.9483 30.4947L10.9483 30.4947C10.7683 30.6746 10.5547 30.8174 10.3196 30.9148C10.0845 31.0122 9.83256 31.0623 9.57809 31.0623C9.32362 31.0623 9.07163 31.0122 8.83654 30.9148C8.60144 30.8174 8.38783 30.6746 8.20791 30.4947L8.20788 30.4946L1.00416 23.2923L0.827404 23.4691L1.00416 23.2923C0.8242 23.1124 0.681445 22.8988 0.584049 22.6637C0.486653 22.4286 0.436523 22.1766 0.436523 21.9221C0.436523 21.6677 0.486653 21.4157 0.584049 21.1806C0.681445 20.9455 0.8242 20.7319 1.00416 20.552L1.00417 20.5519L20.0518 1.50565L20.0519 1.50563C20.2318 1.32566 20.4454 1.18291 20.6805 1.08551C20.9156 0.988118 21.1676 0.937988 21.422 0.937988C21.6765 0.937988 21.9285 0.988118 22.1636 1.08551C22.3987 1.18291 22.6123 1.32567 22.7922 1.50563ZM9.40061 29.3019L9.57738 29.4787L9.75417 29.3019L28.8018 10.2557L28.9786 10.0789L28.8018 9.90209L21.5981 2.69838L21.4213 2.5216L21.2446 2.69838L16.8696 7.07338L16.6928 7.25019L16.8696 7.42697L20.4721 11.0281C20.4721 11.0281 20.4721 11.0281 20.4721 11.0281C20.5505 11.1065 20.6127 11.1996 20.6551 11.302C20.6976 11.4045 20.7194 11.5143 20.7194 11.6252C20.7194 11.736 20.6976 11.8458 20.6551 11.9483C20.6127 12.0507 20.5505 12.1438 20.4721 12.2222C20.3937 12.3006 20.3006 12.3628 20.1982 12.4052C20.0957 12.4477 19.9859 12.4695 19.8751 12.4695C19.7642 12.4695 19.6544 12.4477 19.5519 12.4052C19.4495 12.3628 19.3564 12.3006 19.278 12.2222C19.278 12.2222 19.278 12.2222 19.278 12.2222L15.6769 8.6197L15.5001 8.44286L15.3233 8.61967L12.4946 11.4484L12.3178 11.6252L12.4946 11.802L16.0971 15.4031C16.0971 15.4031 16.0971 15.4031 16.0971 15.4031C16.2555 15.5615 16.3444 15.7762 16.3444 16.0002C16.3444 16.2241 16.2555 16.4389 16.0971 16.5972C15.9388 16.7556 15.724 16.8445 15.5001 16.8445C15.2761 16.8445 15.0614 16.7556 14.903 16.5972C14.903 16.5972 14.903 16.5972 14.903 16.5972L11.3019 12.9947L11.1251 12.8179L10.9483 12.9947L8.11957 15.8234L7.94276 16.0002L8.11961 16.177L11.7221 19.7781C11.7221 19.7781 11.7221 19.7781 11.7221 19.7781C11.8005 19.8565 11.8627 19.9496 11.9051 20.052C11.9476 20.1545 11.9694 20.2643 11.9694 20.3752C11.9694 20.486 11.9476 20.5958 11.9051 20.6983C11.8627 20.8007 11.8005 20.8938 11.7221 20.9722C11.6437 21.0506 11.5506 21.1128 11.4482 21.1552C11.3457 21.1977 11.2359 21.2195 11.1251 21.2195C11.0142 21.2195 10.9044 21.1977 10.8019 21.1552C10.6995 21.1128 10.6064 21.0506 10.528 20.9722C10.528 20.9722 10.528 20.9722 10.528 20.9722L6.92687 17.3697L6.75009 17.1929L6.57328 17.3697L2.19828 21.7447L2.02152 21.9214L2.19827 22.0982L9.40061 29.3019Z" fill="#FFA500" stroke="#FEFEFE" stroke-width="0.5"/>
</svg>
