<svg width="38" height="38" viewBox="0 0 38 38" fill="none" xmlns="http://www.w3.org/2000/svg">
<path d="M13.801 38L13.0448 31.92C12.6352 31.7617 12.2495 31.5717 11.8878 31.35C11.526 31.1283 11.1712 30.8908 10.8234 30.6375L5.199 33.0125L0 23.9875L4.86816 20.2825C4.83665 20.0608 4.8209 19.8474 4.8209 19.6422V18.3597C4.8209 18.1532 4.83665 17.9392 4.86816 17.7175L0 14.0125L5.199 4.9875L10.8234 7.3625C11.17 7.10917 11.5323 6.87167 11.9104 6.65C12.2886 6.42833 12.6667 6.23833 13.0448 6.08L13.801 0H24.199L24.9552 6.08C25.3648 6.23833 25.7511 6.42833 26.1141 6.65C26.4771 6.87167 26.8313 7.10917 27.1766 7.3625L32.801 4.9875L38 14.0125L33.1318 17.7175C33.1634 17.9392 33.1791 18.1532 33.1791 18.3597V19.6403C33.1791 19.8468 33.1476 20.0608 33.0846 20.2825L37.9527 23.9875L32.7537 33.0125L27.1766 30.6375C26.83 30.8908 26.4677 31.1283 26.0896 31.35C25.7114 31.5717 25.3333 31.7617 24.9552 31.92L24.199 38H13.801ZM19.0945 25.65C20.9221 25.65 22.4818 25.0008 23.7736 23.7025C25.0655 22.4042 25.7114 20.8367 25.7114 19C25.7114 17.1633 25.0655 15.5958 23.7736 14.2975C22.4818 12.9992 20.9221 12.35 19.0945 12.35C17.2355 12.35 15.6676 12.9992 14.3908 14.2975C13.1141 15.5958 12.4764 17.1633 12.4776 19C12.4776 20.8367 13.116 22.4042 14.3927 23.7025C15.6695 25.0008 17.2368 25.65 19.0945 25.65Z" fill="#FFA500"/>
</svg>
