<svg width="71" height="71" viewBox="0 0 71 71" fill="none" xmlns="http://www.w3.org/2000/svg">
<path d="M6.32832 12.668C7.46309 19.3945 8.70996 26.3535 8.29023 33.3809C7.89375 40.0527 4.43613 46.0684 3.97266 51.7695H47.6816C48.4063 49.5273 49.8965 47.5449 51.5508 46.0137C52.125 45.4805 52.7129 44.9883 53.3008 44.5645C48.5293 43.2383 44.8652 41.2832 42.0215 38.918H33.8594V36.457H39.4648C38.3027 35.1582 37.3184 33.7773 36.498 32.3555H28.9375V29.8945H35.2266C34.5977 28.541 34.0781 27.1738 33.627 25.793H26.75V23.332H32.875C32.4922 21.9512 32.1504 20.5703 31.8359 19.2305H24.5625V16.7695H31.2617C30.9336 15.334 30.5918 13.9613 30.209 12.668H6.32832ZM18 29.8945C22.293 29.8945 25.793 33.3945 25.793 37.6875C25.793 41.9805 22.293 45.4805 18 45.4805C13.7111 45.4805 10.207 41.9805 10.207 37.6875C10.207 33.3945 13.7111 29.8945 18 29.8945ZM18 32.3555C15.0469 32.3555 12.668 34.7344 12.668 37.6875C12.668 40.6406 15.0469 43.0195 18 43.0195C20.9531 43.0195 23.332 40.6406 23.332 37.6875C23.332 34.7344 20.9531 32.3555 18 32.3555ZM57.3203 45.4805C56.6367 45.5215 54.7773 46.3691 53.2188 47.8184C52.0293 48.9121 50.9629 50.3203 50.3203 51.7695H61.75C63.3223 51.7695 65.25 50.9902 67.0273 50.0879C66.9727 49.5137 66.8906 49.0352 66.7266 48.7207C66.5078 48.2695 66.1934 47.9414 65.5371 47.5859C64.2246 46.875 61.5859 46.2871 57.3203 45.4805ZM67.082 52.7129C66.8086 52.8359 66.6172 52.9316 66.3027 53.0547C64.8945 53.6152 63.2539 54.2305 61.75 54.2305H3.91797V58.332H59.5625C62.5977 58.332 65.7559 57.1426 67.082 56.582V52.7129Z" fill="#FFA500"/>
</svg>
