<svg width="22" height="20" viewBox="0 0 22 20" fill="none" xmlns="http://www.w3.org/2000/svg">
<path d="M21.0215 8.93522L16.849 12.4784L18.0989 17.7535C18.165 18.0292 18.1461 18.3179 18.0446 18.5832C17.9431 18.8486 17.7634 19.079 17.528 19.2456C17.2927 19.4121 17.0121 19.5075 16.7213 19.5197C16.4305 19.532 16.1425 19.4606 15.8933 19.3144L11.1647 16.5238L6.44628 19.3144C6.19701 19.4606 5.90899 19.532 5.61822 19.5197C5.32746 19.5075 5.04685 19.4121 4.81149 19.2456C4.57612 19.079 4.39645 18.8486 4.29492 18.5832C4.19339 18.3179 4.17452 18.0292 4.24066 17.7535L5.48872 12.4838L1.31525 8.93522C1.09451 8.74998 0.934895 8.50546 0.856416 8.23231C0.777936 7.95915 0.784089 7.66954 0.874101 7.39978C0.964114 7.13001 1.13398 6.89211 1.3624 6.71591C1.59081 6.53971 1.86761 6.43304 2.15809 6.40929L7.65918 5.94569L9.80652 0.962251C9.91865 0.700761 10.1078 0.477398 10.3501 0.320288C10.5925 0.163179 10.8772 0.0793457 11.1684 0.0793457C11.4596 0.0793457 11.7443 0.163179 11.9866 0.320288C12.229 0.477398 12.4181 0.700761 12.5302 0.962251L14.684 5.94569L20.1833 6.40929C20.4738 6.43304 20.7506 6.53971 20.979 6.71591C21.2074 6.89211 21.3773 7.13001 21.4673 7.39978C21.5573 7.66954 21.5634 7.95915 21.485 8.23231C21.4065 8.50546 21.2469 8.74998 21.0261 8.93522H21.0215Z" fill="#FFA500"/>
</svg>
